<?xml version="1.0" encoding="UTF-8"?>
<svg xmlns="http://www.w3.org/2000/svg" xmlns:xlink="http://www.w3.org/1999/xlink" width="300pt" height="150pt" viewBox="0 0 300 150" version="1.1">
<g id="surface1">
<path style=" stroke:none;fill-rule:nonzero;fill:rgb(47.843137%,47.843137%,47.843137%);fill-opacity:1;" d="M 115.003906 87.449219 L 111.148438 87.449219 L 111.148438 86.949219 L 119.429688 86.949219 L 119.429688 87.449219 L 115.574219 87.449219 L 115.574219 98.828125 L 114.996094 98.828125 L 114.996094 87.449219 Z M 115.003906 87.449219 "/>
<path style=" stroke:none;fill-rule:nonzero;fill:rgb(47.843137%,47.843137%,47.843137%);fill-opacity:1;" d="M 121.703125 85.828125 L 122.242188 85.828125 L 122.242188 91.628906 C 123.179688 90.691406 124.078125 90.007812 125.265625 90.007812 C 127.027344 90.007812 127.859375 91.050781 127.859375 93.285156 L 127.859375 98.828125 L 127.320312 98.828125 L 127.320312 93.351562 C 127.320312 91.449219 126.703125 90.511719 125.234375 90.511719 C 124.15625 90.511719 123.359375 91.085938 122.25 92.234375 L 122.25 98.828125 L 121.710938 98.828125 L 121.710938 85.828125 Z M 121.703125 85.828125 "/>
<path style=" stroke:none;fill-rule:nonzero;fill:rgb(47.843137%,47.843137%,47.843137%);fill-opacity:1;" d="M 130.335938 94.546875 C 130.335938 91.738281 132.136719 90.007812 134.039062 90.007812 C 136.019531 90.007812 137.28125 91.410156 137.28125 93.96875 C 137.28125 94.148438 137.28125 94.328125 137.242188 94.546875 L 130.90625 94.546875 C 130.90625 96.847656 132.238281 98.542969 134.289062 98.542969 C 135.261719 98.542969 136.011719 98.21875 136.664062 97.746094 L 136.921875 98.210938 C 136.273438 98.609375 135.554688 99.039062 134.257812 99.039062 C 132.105469 99.046875 130.335938 97.359375 130.335938 94.546875 Z M 136.746094 94.042969 C 136.746094 91.664062 135.667969 90.515625 134.046875 90.515625 C 132.503906 90.515625 131.09375 91.851562 130.914062 94.042969 Z M 136.746094 94.042969 "/>
<path style=" stroke:none;fill-rule:nonzero;fill:rgb(47.843137%,47.843137%,47.843137%);fill-opacity:1;" d="M 142.183594 90.300781 L 143.371094 90.226562 L 145.964844 90.226562 L 145.964844 90.726562 L 142.183594 90.726562 Z M 143.371094 88.101562 C 143.371094 86.40625 144.128906 85.621094 145.351562 85.621094 C 145.710938 85.621094 146.144531 85.726562 146.535156 85.90625 L 146.355469 86.371094 C 145.996094 86.191406 145.636719 86.113281 145.3125 86.113281 C 144.335938 86.113281 143.910156 86.871094 143.910156 88.171875 L 143.910156 98.828125 L 143.371094 98.828125 Z M 143.371094 88.101562 "/>
<path style=" stroke:none;fill-rule:nonzero;fill:rgb(47.843137%,47.843137%,47.843137%);fill-opacity:1;" d="M 147.691406 95.765625 L 147.691406 90.226562 L 148.230469 90.226562 L 148.230469 95.699219 C 148.230469 97.605469 148.84375 98.542969 150.316406 98.542969 C 151.394531 98.542969 152.191406 97.964844 153.269531 96.667969 L 153.269531 90.226562 L 153.808594 90.226562 L 153.808594 98.828125 L 153.335938 98.828125 L 153.261719 97.351562 L 153.226562 97.351562 C 152.363281 98.355469 151.460938 99.046875 150.269531 99.046875 C 148.515625 99.046875 147.691406 98.003906 147.691406 95.765625 Z M 147.691406 95.765625 "/>
<path style=" stroke:none;fill-rule:nonzero;fill:rgb(47.843137%,47.843137%,47.843137%);fill-opacity:1;" d="M 157.449219 96.5625 L 157.449219 90.726562 L 156.082031 90.726562 L 156.082031 90.292969 L 157.449219 90.21875 L 157.523438 87.699219 L 157.988281 87.699219 L 157.988281 90.21875 L 160.546875 90.21875 L 160.546875 90.71875 L 157.988281 90.71875 L 157.988281 96.621094 C 157.988281 97.738281 158.242188 98.527344 159.503906 98.527344 C 159.824219 98.527344 160.296875 98.386719 160.621094 98.242188 L 160.800781 98.707031 C 160.296875 98.886719 159.757812 99.03125 159.464844 99.03125 C 157.875 99.046875 157.449219 98.039062 157.449219 96.5625 Z M 157.449219 96.5625 "/>
<path style=" stroke:none;fill-rule:nonzero;fill:rgb(47.843137%,47.843137%,47.843137%);fill-opacity:1;" d="M 162.554688 95.765625 L 162.554688 90.226562 L 163.09375 90.226562 L 163.09375 95.699219 C 163.09375 97.605469 163.710938 98.542969 165.179688 98.542969 C 166.261719 98.542969 167.054688 97.964844 168.136719 96.667969 L 168.136719 90.226562 L 168.675781 90.226562 L 168.675781 98.828125 L 168.210938 98.828125 L 168.136719 97.351562 L 168.097656 97.351562 C 167.234375 98.355469 166.335938 99.046875 165.140625 99.046875 C 163.386719 99.046875 162.554688 98.003906 162.554688 95.765625 Z M 162.554688 95.765625 "/>
<path style=" stroke:none;fill-rule:nonzero;fill:rgb(47.843137%,47.843137%,47.843137%);fill-opacity:1;" d="M 172.132812 90.226562 L 172.605469 90.226562 L 172.679688 91.84375 L 172.71875 91.84375 C 173.296875 90.800781 174.121094 90.007812 175.164062 90.007812 C 175.449219 90.007812 175.703125 90.046875 175.988281 90.1875 L 175.84375 90.691406 C 175.558594 90.585938 175.410156 90.546875 175.085938 90.546875 C 174.292969 90.546875 173.363281 91.164062 172.671875 92.851562 L 172.671875 98.828125 L 172.132812 98.828125 Z M 172.132812 90.226562 "/>
<path style=" stroke:none;fill-rule:nonzero;fill:rgb(47.843137%,47.843137%,47.843137%);fill-opacity:1;" d="M 176.886719 94.546875 C 176.886719 91.738281 178.6875 90.007812 180.601562 90.007812 C 182.578125 90.007812 183.839844 91.410156 183.839844 93.96875 C 183.839844 94.148438 183.839844 94.328125 183.800781 94.546875 L 177.464844 94.546875 C 177.464844 96.847656 178.800781 98.542969 180.847656 98.542969 C 181.816406 98.542969 182.574219 98.21875 183.226562 97.746094 L 183.480469 98.210938 C 182.835938 98.609375 182.113281 99.039062 180.816406 99.039062 C 178.648438 99.046875 176.886719 97.359375 176.886719 94.546875 Z M 183.292969 94.042969 C 183.292969 91.664062 182.210938 90.515625 180.59375 90.515625 C 179.046875 90.515625 177.636719 91.851562 177.457031 94.042969 Z M 183.292969 94.042969 "/>
<path style=" stroke:none;fill-rule:nonzero;fill:rgb(47.843137%,47.843137%,47.843137%);fill-opacity:1;" d="M 189.523438 87.421875 C 189.523438 87.023438 189.808594 86.804688 190.140625 86.804688 C 190.46875 86.804688 190.753906 87.023438 190.753906 87.421875 C 190.753906 87.78125 190.46875 88.035156 190.140625 88.035156 C 189.808594 88.035156 189.523438 87.78125 189.523438 87.421875 Z M 189.847656 90.226562 L 190.386719 90.226562 L 190.386719 98.828125 L 189.847656 98.828125 Z M 189.847656 90.226562 "/>
<path style=" stroke:none;fill-rule:nonzero;fill:rgb(47.843137%,47.843137%,47.843137%);fill-opacity:1;" d="M 192.726562 97.859375 L 193.085938 97.425781 C 193.808594 98.039062 194.601562 98.542969 195.890625 98.542969 C 197.332031 98.542969 198.089844 97.679688 198.089844 96.703125 C 198.089844 95.550781 196.933594 95.046875 195.929688 94.6875 C 194.59375 94.222656 193.117188 93.710938 193.117188 92.242188 C 193.117188 91.058594 194.054688 90.007812 195.816406 90.007812 C 196.679688 90.007812 197.578125 90.367188 198.195312 90.871094 L 197.871094 91.304688 C 197.296875 90.871094 196.6875 90.511719 195.789062 90.511719 C 194.347656 90.511719 193.703125 91.359375 193.703125 92.203125 C 193.703125 93.246094 194.746094 93.644531 195.789062 94.042969 C 197.152344 94.566406 198.667969 94.980469 198.667969 96.667969 C 198.667969 97.925781 197.664062 99.046875 195.863281 99.046875 C 194.566406 99.046875 193.484375 98.503906 192.726562 97.859375 Z M 192.726562 97.859375 "/>
<path style=" stroke:none;fill-rule:nonzero;fill:rgb(47.843137%,47.843137%,47.843137%);fill-opacity:1;" d="M 203.886719 94.546875 C 203.886719 91.769531 205.648438 90.007812 207.742188 90.007812 C 208.785156 90.007812 209.503906 90.40625 210.40625 91.085938 L 210.367188 89.46875 L 210.367188 85.828125 L 210.90625 85.828125 L 210.90625 98.828125 L 210.441406 98.828125 L 210.367188 97.671875 L 210.328125 97.671875 C 209.609375 98.390625 208.636719 99.039062 207.449219 99.039062 C 205.289062 99.046875 203.886719 97.460938 203.886719 94.546875 Z M 210.367188 97.027344 L 210.367188 91.703125 C 209.390625 90.839844 208.605469 90.515625 207.703125 90.515625 C 205.867188 90.515625 204.464844 92.316406 204.464844 94.550781 C 204.464844 96.929688 205.546875 98.550781 207.488281 98.550781 C 208.492188 98.542969 209.390625 98.003906 210.367188 97.027344 Z M 210.367188 97.027344 "/>
<path style=" stroke:none;fill-rule:nonzero;fill:rgb(47.843137%,47.843137%,47.843137%);fill-opacity:1;" d="M 213.710938 96.71875 C 213.710938 94.792969 215.476562 93.890625 219.367188 93.464844 C 219.40625 92.0625 219.046875 90.511719 217.246094 90.511719 C 216.023438 90.511719 214.980469 91.125 214.441406 91.550781 L 214.15625 91.117188 C 214.695312 90.71875 215.878906 90 217.289062 90 C 219.308594 90 219.914062 91.515625 219.914062 93.238281 L 219.914062 98.820312 L 219.449219 98.820312 L 219.375 97.664062 L 219.335938 97.664062 C 218.4375 98.386719 217.359375 99.03125 216.203125 99.03125 C 214.867188 99.046875 213.710938 98.363281 213.710938 96.71875 Z M 219.367188 97.066406 L 219.367188 93.929688 C 215.585938 94.363281 214.289062 95.226562 214.289062 96.703125 C 214.289062 98.039062 215.191406 98.542969 216.234375 98.542969 C 217.273438 98.542969 218.210938 98.039062 219.367188 97.066406 Z M 219.367188 97.066406 "/>
<path style=" stroke:none;fill-rule:nonzero;fill:rgb(47.843137%,47.843137%,47.843137%);fill-opacity:1;" d="M 223.289062 96.5625 L 223.289062 90.726562 L 221.925781 90.726562 L 221.925781 90.292969 L 223.289062 90.21875 L 223.363281 87.699219 L 223.828125 87.699219 L 223.828125 90.21875 L 226.386719 90.21875 L 226.386719 90.71875 L 223.828125 90.71875 L 223.828125 96.621094 C 223.828125 97.738281 224.085938 98.527344 225.34375 98.527344 C 225.667969 98.527344 226.140625 98.386719 226.460938 98.242188 L 226.640625 98.707031 C 226.140625 98.886719 225.601562 99.03125 225.308594 99.03125 C 223.71875 99.046875 223.289062 98.039062 223.289062 96.5625 Z M 223.289062 96.5625 "/>
<path style=" stroke:none;fill-rule:nonzero;fill:rgb(47.843137%,47.843137%,47.843137%);fill-opacity:1;" d="M 227.894531 96.71875 C 227.894531 94.792969 229.65625 93.890625 233.550781 93.464844 C 233.585938 92.0625 233.226562 90.511719 231.425781 90.511719 C 230.203125 90.511719 229.164062 91.125 228.621094 91.550781 L 228.335938 91.117188 C 228.878906 90.71875 230.0625 90 231.472656 90 C 233.488281 90 234.097656 91.515625 234.097656 93.238281 L 234.097656 98.820312 L 233.632812 98.820312 L 233.558594 97.664062 L 233.519531 97.664062 C 232.621094 98.386719 231.539062 99.03125 230.386719 99.03125 C 229.050781 99.046875 227.894531 98.363281 227.894531 96.71875 Z M 233.550781 97.066406 L 233.550781 93.929688 C 229.769531 94.363281 228.472656 95.226562 228.472656 96.703125 C 228.472656 98.039062 229.371094 98.542969 230.414062 98.542969 C 231.457031 98.542969 232.394531 98.039062 233.550781 97.066406 Z M 233.550781 97.066406 "/>
<path style=" stroke:none;fill-rule:nonzero;fill:rgb(47.843137%,47.843137%,47.843137%);fill-opacity:1;" d="M 239.773438 97.859375 L 240.136719 97.425781 C 240.855469 98.039062 241.648438 98.542969 242.941406 98.542969 C 244.378906 98.542969 245.136719 97.679688 245.136719 96.703125 C 245.136719 95.550781 243.984375 95.046875 242.976562 94.6875 C 241.640625 94.222656 240.164062 93.710938 240.164062 92.242188 C 240.164062 91.058594 241.101562 90.007812 242.863281 90.007812 C 243.726562 90.007812 244.628906 90.367188 245.242188 90.871094 L 244.921875 91.304688 C 244.34375 90.871094 243.734375 90.511719 242.835938 90.511719 C 241.394531 90.511719 240.75 91.359375 240.75 92.203125 C 240.75 93.246094 241.792969 93.644531 242.835938 94.042969 C 244.199219 94.566406 245.714844 94.980469 245.714844 96.667969 C 245.714844 97.925781 244.710938 99.046875 242.910156 99.046875 C 241.613281 99.046875 240.53125 98.503906 239.773438 97.859375 Z M 239.773438 97.859375 "/>
<path style=" stroke:none;fill-rule:nonzero;fill:rgb(47.843137%,47.843137%,47.843137%);fill-opacity:1;" d="M 247.335938 94.546875 C 247.335938 91.664062 249.136719 90.007812 251.191406 90.007812 C 252.375 90.007812 253.132812 90.546875 253.710938 91.085938 L 253.351562 91.484375 C 252.773438 90.945312 252.089844 90.511719 251.191406 90.511719 C 249.351562 90.511719 247.914062 92.167969 247.914062 94.546875 C 247.914062 96.921875 249.210938 98.542969 251.191406 98.542969 C 252.164062 98.542969 252.988281 98.078125 253.605469 97.5 L 253.925781 97.898438 C 253.207031 98.542969 252.308594 99.050781 251.191406 99.050781 C 248.992188 99.046875 247.335938 97.386719 247.335938 94.546875 Z M 247.335938 94.546875 "/>
<path style=" stroke:none;fill-rule:nonzero;fill:rgb(47.843137%,47.843137%,47.843137%);fill-opacity:1;" d="M 255.796875 87.421875 C 255.796875 87.023438 256.078125 86.804688 256.410156 86.804688 C 256.734375 86.804688 257.023438 87.023438 257.023438 87.421875 C 257.023438 87.78125 256.738281 88.035156 256.410156 88.035156 C 256.085938 88.027344 255.796875 87.78125 255.796875 87.421875 Z M 256.117188 90.226562 L 256.65625 90.226562 L 256.65625 98.828125 L 256.117188 98.828125 Z M 256.117188 90.226562 "/>
<path style=" stroke:none;fill-rule:nonzero;fill:rgb(47.843137%,47.843137%,47.843137%);fill-opacity:1;" d="M 259.359375 94.546875 C 259.359375 91.738281 261.15625 90.007812 263.0625 90.007812 C 265.042969 90.007812 266.300781 91.410156 266.300781 93.96875 C 266.300781 94.148438 266.300781 94.328125 266.265625 94.546875 L 259.925781 94.546875 C 259.925781 96.847656 261.261719 98.542969 263.308594 98.542969 C 264.285156 98.542969 265.035156 98.21875 265.6875 97.746094 L 265.941406 98.210938 C 265.296875 98.609375 264.578125 99.039062 263.28125 99.039062 C 261.128906 99.046875 259.359375 97.359375 259.359375 94.546875 Z M 265.769531 94.042969 C 265.769531 91.664062 264.691406 90.515625 263.070312 90.515625 C 261.523438 90.515625 260.113281 91.851562 259.933594 94.042969 Z M 265.769531 94.042969 "/>
<path style=" stroke:none;fill-rule:nonzero;fill:rgb(47.843137%,47.843137%,47.843137%);fill-opacity:1;" d="M 268.71875 90.226562 L 269.191406 90.226562 L 269.265625 91.589844 L 269.300781 91.589844 C 270.203125 90.691406 271.101562 90.007812 272.289062 90.007812 C 274.050781 90.007812 274.882812 91.050781 274.882812 93.285156 L 274.882812 98.828125 L 274.34375 98.828125 L 274.34375 93.351562 C 274.34375 91.449219 273.726562 90.511719 272.257812 90.511719 C 271.175781 90.511719 270.382812 91.085938 269.273438 92.234375 L 269.273438 98.828125 L 268.734375 98.828125 L 268.734375 90.226562 Z M 268.71875 90.226562 "/>
<path style=" stroke:none;fill-rule:nonzero;fill:rgb(47.843137%,47.843137%,47.843137%);fill-opacity:1;" d="M 277.433594 94.546875 C 277.433594 91.664062 279.234375 90.007812 281.289062 90.007812 C 282.472656 90.007812 283.230469 90.546875 283.808594 91.085938 L 283.449219 91.484375 C 282.871094 90.945312 282.1875 90.511719 281.289062 90.511719 C 279.449219 90.511719 278.011719 92.167969 278.011719 94.546875 C 278.011719 96.921875 279.308594 98.542969 281.289062 98.542969 C 282.261719 98.542969 283.085938 98.078125 283.703125 97.5 L 284.023438 97.898438 C 283.304688 98.542969 282.40625 99.050781 281.289062 99.050781 C 279.089844 99.046875 277.433594 97.386719 277.433594 94.546875 Z M 277.433594 94.546875 "/>
<path style=" stroke:none;fill-rule:nonzero;fill:rgb(47.843137%,47.843137%,47.843137%);fill-opacity:1;" d="M 285.457031 94.546875 C 285.457031 91.738281 287.257812 90.007812 289.164062 90.007812 C 291.140625 90.007812 292.402344 91.410156 292.402344 93.96875 C 292.402344 94.148438 292.402344 94.328125 292.363281 94.546875 L 286.027344 94.546875 C 286.027344 96.847656 287.363281 98.542969 289.410156 98.542969 C 290.386719 98.542969 291.136719 98.21875 291.789062 97.746094 L 292.042969 98.210938 C 291.398438 98.609375 290.675781 99.039062 289.378906 99.039062 C 287.226562 99.046875 285.457031 97.359375 285.457031 94.546875 Z M 291.871094 94.042969 C 291.871094 91.664062 290.789062 90.515625 289.171875 90.515625 C 287.625 90.515625 286.214844 91.851562 286.035156 94.042969 Z M 291.871094 94.042969 "/>
<path style=" stroke:none;fill-rule:nonzero;fill:rgb(0%,0%,0%);fill-opacity:1;" d="M 112.074219 45.988281 L 124.351562 45.988281 L 124.351562 46.964844 L 113.191406 46.964844 L 113.191406 56.664062 L 122.601562 56.664062 L 122.601562 57.636719 L 113.191406 57.636719 L 113.191406 69.007812 L 112.074219 69.007812 Z M 112.074219 45.988281 "/>
<path style=" stroke:none;fill-rule:nonzero;fill:rgb(0%,0%,0%);fill-opacity:1;" d="M 126.863281 60.703125 C 126.863281 55.265625 130.351562 51.914062 134.046875 51.914062 C 137.878906 51.914062 140.324219 54.636719 140.324219 59.585938 C 140.324219 59.933594 140.324219 60.285156 140.257812 60.703125 L 127.980469 60.703125 C 127.980469 65.167969 130.558594 68.445312 134.535156 68.445312 C 136.417969 68.445312 137.878906 67.816406 139.140625 66.90625 L 139.628906 67.816406 C 138.375 68.578125 136.980469 69.421875 134.46875 69.421875 C 130.273438 69.425781 126.863281 66.148438 126.863281 60.703125 Z M 139.273438 59.730469 C 139.273438 55.125 137.183594 52.898438 134.046875 52.898438 C 131.046875 52.898438 128.324219 55.476562 127.980469 59.730469 Z M 139.273438 59.730469 "/>
<path style=" stroke:none;fill-rule:nonzero;fill:rgb(0%,0%,0%);fill-opacity:1;" d="M 144.996094 67.191406 L 144.996094 43.828125 L 146.046875 43.828125 L 146.046875 67.402344 C 146.046875 68.101562 146.324219 68.445312 146.746094 68.445312 C 146.886719 68.445312 147.023438 68.445312 147.375 68.378906 L 147.585938 69.285156 C 147.308594 69.351562 147.097656 69.425781 146.675781 69.425781 C 145.621094 69.425781 144.996094 68.796875 144.996094 67.191406 Z M 144.996094 67.191406 "/>
<path style=" stroke:none;fill-rule:nonzero;fill:rgb(0%,0%,0%);fill-opacity:1;" d="M 152.386719 46.898438 C 152.386719 46.132812 152.941406 45.710938 153.570312 45.710938 C 154.199219 45.710938 154.753906 46.132812 154.753906 46.898438 C 154.753906 47.59375 154.199219 48.082031 153.570312 48.082031 C 152.941406 48.082031 152.386719 47.59375 152.386719 46.898438 Z M 153.015625 52.335938 L 154.058594 52.335938 L 154.058594 69 L 153.015625 69 Z M 153.015625 52.335938 "/>
<path style=" stroke:none;fill-rule:nonzero;fill:rgb(0%,0%,0%);fill-opacity:1;" d="M 160.753906 52.335938 L 161.664062 52.335938 L 161.804688 54.496094 L 161.871094 54.496094 C 163.546875 53.167969 165.570312 51.914062 167.664062 51.914062 C 172.191406 51.914062 174.359375 55.261719 174.359375 60.421875 C 174.359375 66.066406 170.941406 69.421875 166.964844 69.421875 C 165.359375 69.421875 163.621094 68.65625 161.804688 67.328125 L 161.804688 76.738281 L 160.761719 76.738281 L 160.761719 52.335938 Z M 173.242188 60.425781 C 173.242188 56.175781 171.703125 52.898438 167.59375 52.898438 C 165.847656 52.898438 163.972656 53.949219 161.804688 55.828125 L 161.804688 66.148438 C 163.828125 67.824219 165.710938 68.453125 167.03125 68.453125 C 170.664062 68.445312 173.242188 65.101562 173.242188 60.425781 Z M 173.242188 60.425781 "/>
<path style=" stroke:none;fill-rule:nonzero;fill:rgb(0%,0%,0%);fill-opacity:1;" d="M 178.125 60.703125 C 178.125 55.265625 181.613281 51.914062 185.308594 51.914062 C 189.140625 51.914062 191.585938 54.636719 191.585938 59.585938 C 191.585938 59.933594 191.585938 60.285156 191.519531 60.703125 L 179.242188 60.703125 C 179.242188 65.167969 181.824219 68.445312 185.796875 68.445312 C 187.679688 68.445312 189.140625 67.816406 190.402344 66.90625 L 190.890625 67.816406 C 189.636719 68.578125 188.242188 69.421875 185.730469 69.421875 C 181.546875 69.425781 178.125 66.148438 178.125 60.703125 Z M 190.539062 59.730469 C 190.539062 55.125 188.445312 52.898438 185.308594 52.898438 C 182.308594 52.898438 179.585938 55.476562 179.242188 59.730469 Z M 190.539062 59.730469 "/>
<path style=" stroke:none;fill-rule:nonzero;fill:rgb(0%,0%,0%);fill-opacity:1;" d="M 203.378906 45.988281 L 204.496094 45.988281 L 204.496094 68.023438 L 215.300781 68.023438 L 215.300781 69 L 203.378906 69 Z M 203.378906 45.988281 "/>
<path style=" stroke:none;fill-rule:nonzero;fill:rgb(0%,0%,0%);fill-opacity:1;" d="M 218.648438 46.898438 C 218.648438 46.132812 219.203125 45.710938 219.832031 45.710938 C 220.460938 45.710938 221.015625 46.132812 221.015625 46.898438 C 221.015625 47.59375 220.460938 48.082031 219.832031 48.082031 C 219.203125 48.082031 218.648438 47.59375 218.648438 46.898438 Z M 219.277344 52.335938 L 220.328125 52.335938 L 220.328125 69 L 219.277344 69 Z M 219.277344 52.335938 "/>
<path style=" stroke:none;fill-rule:nonzero;fill:rgb(0%,0%,0%);fill-opacity:1;" d="M 227.015625 52.335938 L 227.925781 52.335938 L 228.066406 54.984375 L 228.136719 54.984375 C 229.671875 53.242188 231.621094 51.914062 233.4375 51.914062 C 236.160156 51.914062 237.480469 53.308594 238.042969 55.402344 C 239.992188 53.242188 241.875 51.914062 243.765625 51.914062 C 247.042969 51.914062 248.714844 53.941406 248.714844 58.261719 L 248.714844 69 L 247.664062 69 L 247.664062 58.402344 C 247.664062 54.703125 246.414062 52.890625 243.691406 52.890625 C 242.015625 52.890625 240.34375 54.007812 238.386719 56.234375 L 238.386719 69 L 237.34375 69 L 237.34375 58.402344 C 237.34375 54.703125 236.09375 52.890625 233.371094 52.890625 C 231.765625 52.890625 230.023438 54.007812 228.066406 56.234375 L 228.066406 69 L 227.015625 69 Z M 227.015625 52.335938 "/>
<path style=" stroke:none;fill-rule:nonzero;fill:rgb(0%,0%,0%);fill-opacity:1;" d="M 253.875 64.925781 C 253.875 61.199219 257.296875 59.453125 264.824219 58.613281 C 264.890625 55.890625 264.195312 52.890625 260.707031 52.890625 C 258.335938 52.890625 256.3125 54.074219 255.269531 54.914062 L 254.714844 54.074219 C 255.757812 53.308594 258.058594 51.914062 260.78125 51.914062 C 264.691406 51.914062 265.875 54.847656 265.875 58.191406 L 265.875 69 L 264.96875 69 L 264.824219 66.765625 L 264.75 66.765625 C 263.003906 68.160156 260.917969 69.414062 258.683594 69.414062 C 256.101562 69.425781 253.875 68.101562 253.875 64.925781 Z M 264.824219 65.585938 L 264.824219 59.519531 C 257.503906 60.359375 254.992188 62.03125 254.992188 64.890625 C 254.992188 67.46875 256.738281 68.445312 258.757812 68.445312 C 260.773438 68.445312 262.589844 67.46875 264.824219 65.585938 Z M 264.824219 65.585938 "/>
<path style=" stroke:none;fill-rule:nonzero;fill:rgb(0%,0%,0%);fill-opacity:1;" d="M 96.328125 38.976562 L 96.890625 38.976562 L 96.890625 103.828125 L 96.328125 103.828125 Z M 96.328125 38.976562 "/>
<path style=" stroke:none;fill-rule:nonzero;fill:rgb(0%,0%,0%);fill-opacity:1;" d="M 78.773438 65.054688 C 80.566406 65.054688 82.019531 63.601562 82.019531 61.808594 C 82.019531 60.015625 80.566406 58.558594 78.773438 58.558594 C 77.910156 58.558594 77.136719 58.898438 76.550781 59.445312 L 59.265625 44.054688 C 59.730469 43.515625 60.015625 42.800781 60.015625 42.03125 C 60.015625 40.3125 58.628906 38.925781 56.910156 38.925781 C 55.191406 38.925781 53.804688 40.3125 53.804688 42.03125 C 53.804688 42.53125 53.925781 43.003906 54.136719 43.425781 L 54.046875 43.246094 L 46.058594 47.339844 L 42.066406 43.90625 L 42 43.988281 C 42.433594 43.453125 42.699219 42.773438 42.699219 42.03125 C 42.699219 40.3125 41.308594 38.925781 39.59375 38.925781 C 37.875 38.925781 36.488281 40.3125 36.488281 42.03125 C 36.488281 42.796875 36.765625 43.484375 37.214844 44.023438 L 37.074219 43.875 L 20.527344 59.25 C 19.941406 58.65625 19.125 58.289062 18.226562 58.289062 C 16.433594 58.289062 14.976562 59.746094 14.976562 61.539062 C 14.976562 63.328125 16.433594 64.785156 18.226562 64.785156 C 18.613281 64.785156 18.984375 64.710938 19.328125 64.589844 L 20.878906 67.378906 L 19.996094 68.601562 C 19.484375 68.273438 18.878906 68.078125 18.226562 68.078125 C 16.433594 68.078125 14.976562 69.53125 14.976562 71.324219 C 14.976562 73.117188 16.433594 74.574219 18.226562 74.574219 C 18.90625 74.574219 19.546875 74.355469 20.070312 73.996094 L 21.179688 75.546875 L 19.726562 78.226562 C 19.273438 77.992188 18.765625 77.859375 18.226562 77.859375 C 16.433594 77.859375 14.976562 79.3125 14.976562 81.105469 C 14.976562 82.898438 16.433594 84.351562 18.226562 84.351562 C 19.101562 84.351562 19.898438 84 20.484375 83.429688 L 37.117188 98.851562 L 37.261719 98.691406 C 36.773438 99.238281 36.472656 99.960938 36.472656 100.746094 C 36.472656 102.464844 37.859375 103.851562 39.578125 103.851562 C 41.296875 103.851562 42.683594 102.464844 42.683594 100.746094 C 42.683594 100.050781 42.449219 99.40625 42.058594 98.886719 L 42.195312 99.046875 L 48.253906 93.789062 L 54.34375 98.96875 L 54.480469 98.8125 C 54.050781 99.34375 53.796875 100.019531 53.796875 100.753906 C 53.796875 102.472656 55.183594 103.859375 56.902344 103.859375 C 58.621094 103.859375 60.007812 102.472656 60.007812 100.753906 C 60.007812 100.003906 59.746094 99.324219 59.300781 98.78125 L 59.445312 98.941406 L 76.433594 83.527344 C 77.023438 84.136719 77.851562 84.515625 78.757812 84.515625 C 80.550781 84.515625 82.003906 83.0625 82.003906 81.269531 C 82.003906 79.476562 80.550781 78.023438 78.757812 78.023438 C 78.292969 78.023438 77.851562 78.121094 77.445312 78.300781 L 73.589844 71.46875 L 77.371094 64.761719 C 77.804688 64.941406 78.277344 65.054688 78.773438 65.054688 Z M 78.773438 58.84375 C 80.40625 58.84375 81.734375 60.171875 81.734375 61.808594 C 81.734375 63.441406 80.40625 64.769531 78.773438 64.769531 C 77.136719 64.769531 75.808594 63.441406 75.808594 61.808594 C 75.808594 60.171875 77.136719 58.84375 78.773438 58.84375 Z M 75.570312 81.734375 L 66.699219 83.699219 L 70.171875 77.542969 L 75.765625 80.023438 C 75.613281 80.398438 75.523438 80.8125 75.523438 81.238281 C 75.523438 81.414062 75.539062 81.578125 75.570312 81.734375 Z M 59.949219 85.363281 C 59.820312 84.757812 59.511719 84.226562 59.085938 83.804688 L 66.398438 75.871094 L 69.78125 77.371094 L 66.140625 83.820312 L 59.917969 85.199219 Z M 59.078125 83.796875 C 58.515625 83.25 57.757812 82.921875 56.917969 82.921875 C 56.378906 82.921875 55.875 83.054688 55.433594 83.296875 L 52.746094 78.726562 L 55.433594 74.039062 C 55.875 74.28125 56.378906 74.414062 56.917969 74.414062 C 58.148438 74.414062 59.199219 73.703125 59.707031 72.667969 L 59.625 72.855469 L 66 75.683594 L 58.785156 83.511719 Z M 27.464844 77.324219 L 30.53125 75.921875 L 37.328125 83.878906 L 37.484375 83.746094 C 37.335938 83.878906 37.199219 84.039062 37.074219 84.203125 L 37.230469 83.96875 Z M 20.566406 78.839844 L 22.214844 76.964844 L 23.453125 78.691406 L 21.246094 79.703125 L 21.421875 80.085938 L 23.699219 79.042969 L 26.378906 82.785156 L 21.414062 81.660156 C 21.441406 81.472656 21.464844 81.285156 21.464844 81.089844 C 21.472656 80.21875 21.128906 79.425781 20.566406 78.839844 Z M 21.457031 61.175781 L 26.199219 60.066406 L 23.476562 63.824219 L 21.226562 62.773438 C 21.382812 62.390625 21.472656 61.972656 21.472656 61.539062 C 21.472656 61.417969 21.464844 61.296875 21.457031 61.175781 Z M 55.460938 59.585938 C 55.539062 59.625 55.613281 59.664062 55.695312 59.699219 L 55.558594 59.648438 L 53.421875 65.0625 L 52.851562 64.09375 L 55.492188 59.601562 Z M 55.753906 59.722656 C 56.113281 59.863281 56.503906 59.949219 56.917969 59.949219 C 57.683594 59.949219 58.386719 59.671875 58.925781 59.203125 L 58.769531 59.355469 L 65.941406 67.15625 L 59.691406 69.90625 L 59.863281 70.289062 L 66.238281 67.476562 L 69.890625 71.453125 L 66.300781 75.351562 L 59.796875 72.464844 C 59.949219 72.105469 60.023438 71.714844 60.023438 71.296875 C 60.023438 69.578125 58.636719 68.191406 56.917969 68.191406 C 56.390625 68.191406 55.898438 68.316406 55.46875 68.550781 L 55.476562 68.550781 L 53.699219 65.511719 L 55.957031 59.789062 Z M 75.699219 62.851562 L 70.140625 65.300781 L 66.699219 59.199219 L 75.609375 61.101562 C 75.554688 61.335938 75.523438 61.566406 75.523438 61.816406 C 75.523438 62.175781 75.59375 62.527344 75.699219 62.851562 Z M 71.902344 69.277344 L 70.175781 71.152344 L 66.644531 67.3125 L 69.960938 65.851562 Z M 71.886719 73.636719 L 69.988281 77.003906 L 66.699219 75.539062 L 70.171875 71.765625 Z M 41.054688 68.574219 C 40.621094 68.339844 40.117188 68.203125 39.59375 68.203125 C 37.875 68.203125 36.488281 69.59375 36.488281 71.308594 L 36.488281 71.03125 L 27.449219 71.03125 L 30.511719 67.558594 L 36.398438 70.296875 L 36.578125 69.914062 L 30.800781 67.230469 L 37.738281 59.347656 L 37.621094 59.242188 C 38.152344 59.683594 38.84375 59.949219 39.585938 59.949219 C 39.960938 59.949219 40.320312 59.878906 40.648438 59.753906 L 40.453125 59.828125 L 42.734375 65.601562 L 40.996094 68.535156 Z M 24.914062 68.683594 L 24.164062 67.800781 L 26.121094 66.457031 Z M 24.988281 69.425781 L 26.363281 71.03125 L 24.121094 71.03125 Z M 23.886719 67.484375 L 22.5 65.863281 L 23.601562 64.351562 L 26.496094 65.699219 Z M 24.699219 69.082031 L 23.640625 71.03125 L 23.40625 71.03125 L 22.3125 69.066406 L 23.8125 68.046875 Z M 23.527344 72.121094 L 24.457031 73.792969 L 23.632812 74.722656 L 22.515625 73.964844 Z M 26.40625 77.28125 L 26.4375 77.332031 L 23.851562 78.515625 L 22.507812 76.640625 L 23.617188 75.382812 Z M 23.984375 74.960938 L 24.675781 74.183594 L 25.792969 76.191406 Z M 23.765625 71.675781 L 23.8125 71.59375 L 26.390625 71.59375 L 24.757812 73.453125 Z M 25.207031 69.03125 L 26.886719 65.949219 L 26.949219 65.910156 L 30.113281 67.378906 L 26.910156 71.015625 Z M 37.109375 58.710938 C 37.253906 58.898438 37.410156 59.0625 37.582031 59.210938 L 37.425781 59.070312 L 30.40625 67.042969 L 27.359375 65.625 L 37.238281 58.882812 Z M 27.328125 65.128906 L 30.652344 59.015625 L 36.585938 57.621094 C 36.667969 57.945312 36.800781 58.253906 36.984375 58.53125 Z M 36.765625 72.601562 L 30.652344 75.398438 L 27.398438 71.585938 L 36.480469 71.585938 L 36.480469 71.308594 C 36.480469 71.773438 36.585938 72.210938 36.765625 72.601562 Z M 43.648438 64.066406 L 43.003906 65.144531 L 40.84375 59.675781 L 40.835938 59.675781 C 40.90625 59.648438 40.972656 59.617188 41.03125 59.578125 L 41.015625 59.585938 Z M 42.703125 57.128906 L 44.011719 57.082031 L 45.179688 61.09375 L 42.210938 58.546875 L 42.074219 58.703125 C 42.464844 58.183594 42.699219 57.539062 42.699219 56.84375 C 42.699219 56.113281 42.441406 55.449219 42.023438 54.914062 L 42.039062 54.929688 L 43.117188 54.015625 L 43.851562 56.527344 L 42.699219 56.566406 Z M 54.433594 58.710938 L 54.300781 58.550781 L 51.570312 60.890625 L 52.746094 56.796875 L 53.820312 56.761719 C 53.820312 56.789062 53.8125 56.820312 53.8125 56.851562 C 53.8125 57.546875 54.046875 58.183594 54.433594 58.710938 Z M 51.074219 61.058594 L 48.652344 56.925781 L 52.296875 56.804688 Z M 54.503906 73.261719 L 54.359375 73.09375 L 51.105469 75.921875 L 50.199219 74.378906 L 51.300781 71.585938 L 53.8125 71.585938 L 53.8125 71.023438 L 51.523438 71.023438 L 52.679688 68.09375 L 54.351562 69.53125 L 54.488281 69.367188 C 54.058594 69.898438 53.804688 70.566406 53.804688 71.300781 C 53.8125 72.050781 54.066406 72.726562 54.503906 73.261719 Z M 46.996094 75.253906 L 46.71875 74.550781 L 47.65625 72.953125 Z M 47.054688 76.558594 L 47.65625 78.074219 L 46.824219 77.371094 Z M 42 69.359375 L 42.136719 69.515625 L 43.738281 68.144531 L 44.878906 71.03125 L 42.699219 71.03125 L 42.699219 71.59375 L 45.105469 71.59375 L 46.261719 74.511719 L 45.328125 76.09375 L 42 73.273438 C 42.441406 72.742188 42.703125 72.050781 42.703125 71.300781 C 42.691406 70.574219 42.433594 69.890625 42 69.359375 Z M 45.601562 66.554688 L 46.53125 65.753906 L 47.910156 70.492188 Z M 47.738281 71.03125 L 45.324219 71.03125 L 44.070312 67.859375 L 45.269531 66.832031 Z M 45.976562 62.339844 L 47.917969 64.003906 L 46.753906 65.003906 Z M 46.402344 65.308594 L 45.382812 66.179688 L 44.136719 64.066406 L 45.414062 61.914062 Z M 45.058594 66.457031 L 43.914062 67.441406 L 43.207031 65.648438 L 43.898438 64.484375 Z M 46.449219 75.015625 L 46.808594 75.921875 L 46.476562 77.078125 L 45.652344 76.378906 Z M 46.523438 74.054688 L 45.554688 71.59375 L 47.96875 71.59375 Z M 46.882812 65.453125 L 48.238281 64.289062 L 49.769531 65.601562 L 48.359375 70.507812 Z M 48.984375 69.855469 L 50.121094 65.902344 L 50.910156 66.578125 Z M 51.234375 66.863281 L 52.335938 67.816406 L 51.058594 71.039062 L 48.773438 71.039062 Z M 49.898438 65.152344 L 48.5625 64.003906 L 50.765625 62.113281 Z M 50.84375 71.59375 L 49.925781 73.921875 L 48.789062 71.976562 L 48.675781 71.585938 L 50.84375 71.585938 Z M 49.734375 74.421875 L 49.597656 74.761719 L 49.265625 73.636719 Z M 49.824219 77.046875 L 48.796875 77.941406 L 49.539062 76.058594 Z M 49.792969 75.421875 L 50.003906 74.878906 L 50.78125 76.207031 L 50.175781 76.738281 Z M 52.5 67.394531 L 51.449219 66.488281 L 52.613281 64.515625 L 53.226562 65.566406 Z M 51.128906 66.210938 L 50.25 65.460938 L 51.210938 62.121094 L 52.363281 64.09375 Z M 50.84375 61.5 L 48.238281 63.726562 L 45.757812 61.597656 L 45.703125 61.417969 L 48.261719 57.097656 Z M 45.546875 60.871094 L 44.4375 57.074219 L 47.863281 56.960938 Z M 45.113281 61.597656 L 43.898438 63.644531 L 41.390625 59.378906 L 41.21875 59.484375 C 41.488281 59.316406 41.730469 59.109375 41.941406 58.867188 Z M 41.363281 68.761719 L 42.9375 66.105469 L 43.582031 67.734375 L 41.871094 69.203125 L 41.953125 69.300781 C 41.738281 69.046875 41.476562 68.828125 41.191406 68.65625 Z M 41.84375 73.441406 L 41.707031 73.597656 L 45.097656 76.460938 L 43.996094 78.335938 L 41.398438 73.835938 L 41.203125 73.949219 C 41.445312 73.816406 41.65625 73.636719 41.84375 73.441406 Z M 45.425781 76.746094 L 46.34375 77.519531 L 45.40625 80.78125 L 44.242188 78.765625 Z M 45.53125 81.847656 L 46.28125 83.152344 L 45.261719 85.738281 L 44.414062 85.738281 Z M 46.550781 83.617188 L 47.773438 85.738281 L 45.710938 85.738281 Z M 46.484375 82.648438 L 45.699219 81.285156 L 45.734375 81.164062 L 47.765625 79.394531 Z M 45.945312 80.414062 L 46.695312 77.8125 L 47.835938 78.773438 Z M 47.25 75.890625 L 48.351562 72.066406 L 48.398438 72.148438 L 49.34375 75.398438 L 48.195312 78.300781 Z M 49.957031 77.488281 L 50.933594 80.84375 L 48.480469 78.773438 Z M 50.796875 81.285156 L 49.957031 82.761719 L 48.660156 79.476562 Z M 50.675781 85.738281 L 48.734375 85.738281 L 49.882812 83.730469 Z M 50.152344 83.265625 L 51.128906 81.5625 L 51.140625 81.578125 L 52.359375 85.738281 L 51.128906 85.738281 Z M 50.300781 77.191406 L 51 76.582031 L 52.261719 78.726562 L 51.261719 80.476562 Z M 51.324219 76.304688 L 54.636719 73.425781 L 54.585938 73.363281 C 54.78125 73.582031 55.003906 73.777344 55.253906 73.933594 L 55.066406 73.828125 L 52.5 78.308594 Z M 54.59375 69.253906 L 54.621094 69.21875 L 52.835938 67.6875 L 53.488281 66.03125 L 55.101562 68.78125 L 55.289062 68.671875 C 55.035156 68.828125 54.796875 69.023438 54.59375 69.253906 Z M 55.125 59.390625 L 52.605469 63.683594 L 51.382812 61.597656 L 54.5625 58.875 C 54.773438 59.121094 55.019531 59.332031 55.296875 59.496094 Z M 53.835938 56.476562 L 53.828125 56.191406 L 52.90625 56.21875 L 53.46875 54.269531 L 54.367188 55.042969 L 54.511719 54.878906 C 54.140625 55.328125 53.902344 55.875 53.835938 56.476562 Z M 52.460938 56.234375 L 48.703125 56.363281 L 51.136719 52.265625 L 53.113281 53.96875 Z M 48.269531 56.273438 L 45.667969 51.832031 L 48.164062 49.703125 L 50.8125 51.984375 Z M 47.851562 56.390625 L 44.28125 56.511719 L 43.460938 53.714844 L 45.34375 52.109375 Z M 43.335938 53.273438 L 42.308594 49.738281 L 43.574219 49.085938 L 45.128906 51.742188 Z M 42.984375 53.574219 L 41.761719 54.613281 L 41.894531 54.78125 C 41.324219 54.140625 40.5 53.746094 39.585938 53.746094 C 37.867188 53.746094 36.480469 55.132812 36.480469 56.851562 C 36.480469 57.046875 36.503906 57.238281 36.53125 57.425781 L 36.488281 57.226562 L 30.914062 58.53125 L 33.136719 54.441406 L 41.910156 49.941406 Z M 30.367188 58.648438 L 27.195312 59.390625 L 29.40625 56.347656 L 32.476562 54.78125 Z M 30.097656 59.152344 L 26.730469 65.339844 L 23.859375 64.003906 L 26.820312 59.925781 Z M 23.210938 64.171875 L 22.214844 65.542969 L 20.640625 63.699219 C 20.789062 63.53125 20.917969 63.351562 21.03125 63.15625 Z M 22.246094 66.21875 L 23.527344 67.726562 L 22.09375 68.699219 L 21.375 67.410156 Z M 22.921875 71.03125 L 21.457031 71.03125 C 21.421875 70.621094 21.308594 70.230469 21.128906 69.871094 L 21.953125 69.308594 Z M 23.234375 71.59375 L 23.28125 71.683594 L 22.171875 73.734375 L 21.03125 72.953125 C 21.269531 72.546875 21.421875 72.089844 21.464844 71.59375 Z M 22.253906 74.460938 L 23.265625 75.140625 L 22.253906 76.289062 L 21.691406 75.503906 Z M 24.097656 78.863281 L 26.640625 77.699219 L 29.925781 83.585938 L 27.007812 82.925781 Z M 26.574219 76.71875 L 24.96875 73.84375 L 26.894531 71.664062 L 30.246094 75.59375 L 27.050781 77.054688 Z M 30.9375 75.734375 L 36.945312 72.984375 L 36.855469 72.789062 C 37.378906 73.753906 38.40625 74.414062 39.585938 74.414062 C 40.109375 74.414062 40.605469 74.28125 41.039062 74.054688 L 43.753906 78.765625 L 41.085938 83.308594 C 40.640625 83.0625 40.132812 82.921875 39.585938 82.921875 C 38.851562 82.921875 38.183594 83.175781 37.648438 83.59375 Z M 41.453125 83.519531 L 44.003906 79.175781 L 45.128906 81.128906 L 41.894531 83.941406 C 41.707031 83.730469 41.488281 83.550781 41.25 83.398438 Z M 42.023438 84.105469 L 42.15625 84.261719 L 45.140625 81.667969 L 43.972656 85.738281 L 42.691406 85.738281 L 42.691406 86.300781 L 43.816406 86.300781 L 43.09375 88.816406 L 42.046875 87.921875 L 42.023438 87.953125 C 42.441406 87.421875 42.699219 86.753906 42.699219 86.023438 C 42.691406 85.296875 42.441406 84.636719 42.023438 84.105469 Z M 43.320312 89.566406 L 43.648438 89.84375 L 42.140625 93.675781 Z M 43.449219 89.113281 L 44.257812 86.300781 L 45.046875 86.300781 L 43.816406 89.421875 Z M 45.496094 86.300781 L 47.925781 86.300781 L 45.375 90.757812 L 44.144531 89.714844 Z M 46.753906 83.113281 L 48.203125 79.449219 L 49.695312 83.21875 L 48.261719 85.726562 Z M 50.902344 86.300781 L 52.261719 89.746094 L 51.136719 90.71875 L 48.59375 86.300781 Z M 51.351562 86.300781 L 52.523438 86.300781 L 53.273438 88.867188 L 52.597656 89.453125 Z M 53.398438 89.316406 L 55.828125 97.648438 L 52.761719 89.871094 Z M 52.964844 86.300781 L 53.8125 86.300781 L 53.8125 85.738281 L 52.800781 85.738281 L 51.726562 82.066406 L 54.335938 84.269531 L 54.472656 84.105469 C 54.058594 84.628906 53.8125 85.296875 53.8125 86.015625 C 53.8125 86.761719 54.074219 87.441406 54.511719 87.976562 L 54.421875 87.871094 L 53.625 88.558594 Z M 51.515625 81.335938 L 51.425781 81.039062 L 52.507812 79.148438 L 55.066406 83.511719 L 55.28125 83.386719 C 55.027344 83.542969 54.800781 83.730469 54.601562 83.953125 Z M 70.378906 77.175781 L 72.195312 73.964844 L 76.640625 78.808594 C 76.363281 79.050781 76.132812 79.335938 75.953125 79.648438 Z M 72.105469 73.253906 L 70.460938 71.460938 L 72.121094 69.660156 L 73.125 71.445312 Z M 70.351562 65.671875 L 75.863281 63.238281 C 76.042969 63.601562 76.28125 63.921875 76.582031 64.191406 L 72.203125 68.949219 Z M 59.136719 44.199219 L 58.988281 44.371094 L 76.265625 59.761719 C 76.042969 60.039062 75.863281 60.351562 75.734375 60.699219 L 66.425781 58.710938 L 58.515625 44.683594 C 58.738281 44.550781 58.949219 44.386719 59.136719 44.199219 Z M 56.917969 45.136719 C 57.425781 45.136719 57.90625 45.007812 58.335938 44.789062 L 58.15625 44.894531 L 65.878906 58.589844 L 60.074219 57.351562 L 59.984375 57.765625 L 66.15625 59.085938 L 69.765625 65.484375 L 66.351562 66.988281 L 59.085938 59.085938 C 59.664062 58.523438 60.023438 57.734375 60.023438 56.859375 C 60.023438 55.140625 58.636719 53.753906 56.917969 53.753906 C 55.972656 53.753906 55.125 54.179688 54.554688 54.847656 L 54.644531 54.742188 L 53.59375 53.84375 L 56.121094 45.046875 C 56.378906 45.097656 56.640625 45.136719 56.917969 45.136719 Z M 55.921875 44.96875 L 55.71875 44.910156 L 53.242188 53.519531 L 51.351562 51.890625 L 55.546875 44.820312 L 55.449219 44.761719 C 55.597656 44.851562 55.753906 44.917969 55.921875 44.96875 Z M 55.371094 44.722656 L 55.183594 44.609375 L 51.03125 51.613281 L 48.488281 49.425781 L 54.660156 44.160156 L 54.523438 44.003906 C 54.757812 44.296875 55.042969 44.535156 55.371094 44.722656 Z M 54.238281 43.621094 L 54.203125 43.539062 C 54.292969 43.703125 54.398438 43.859375 54.515625 44.003906 L 54.382812 43.84375 L 48.164062 49.148438 L 46.410156 47.632812 Z M 47.835938 49.425781 L 45.449219 51.464844 L 43.949219 48.898438 L 46.003906 47.851562 Z M 41.949219 44.046875 L 41.796875 44.21875 L 45.660156 47.542969 L 43.738281 48.523438 L 41.414062 44.550781 L 41.226562 44.65625 C 41.488281 44.496094 41.738281 44.289062 41.949219 44.046875 Z M 41.039062 44.773438 L 43.359375 48.726562 L 42.179688 49.328125 L 40.882812 44.871094 L 40.679688 44.933594 C 40.808594 44.886719 40.925781 44.835938 41.039062 44.773438 Z M 39.585938 45.136719 C 39.890625 45.136719 40.199219 45.089844 40.476562 45 L 41.796875 49.523438 L 33.503906 53.773438 L 38.339844 44.878906 L 38.152344 44.78125 C 38.585938 45.007812 39.066406 45.136719 39.585938 45.136719 Z M 38.0625 44.730469 L 37.972656 44.675781 L 32.84375 54.113281 L 29.96875 55.582031 L 37.921875 44.632812 L 37.882812 44.601562 C 37.933594 44.65625 37.996094 44.699219 38.0625 44.730469 Z M 37.359375 44.191406 C 37.476562 44.308594 37.605469 44.421875 37.746094 44.527344 L 37.574219 44.398438 L 29.128906 56.015625 L 21.238281 60.066406 L 21.433594 60.441406 L 28.589844 56.773438 L 26.578125 59.542969 L 21.382812 60.757812 C 21.277344 60.316406 21.074219 59.917969 20.8125 59.566406 Z M 18.234375 64.5 C 16.597656 64.5 15.269531 63.171875 15.269531 61.539062 C 15.269531 59.902344 16.597656 58.574219 18.234375 58.574219 C 19.867188 58.574219 21.195312 59.902344 21.195312 61.539062 C 21.195312 63.171875 19.867188 64.5 18.234375 64.5 Z M 19.71875 64.417969 C 19.941406 64.296875 20.152344 64.15625 20.347656 63.988281 L 21.96875 65.886719 L 21.15625 66.996094 Z M 21.113281 67.785156 L 21.757812 68.941406 L 20.925781 69.511719 C 20.761719 69.261719 20.566406 69.046875 20.339844 68.859375 Z M 18.234375 74.28125 C 16.597656 74.28125 15.269531 72.953125 15.269531 71.316406 C 15.269531 69.683594 16.597656 68.355469 18.234375 68.355469 C 19.867188 68.355469 21.195312 69.683594 21.195312 71.316406 C 21.195312 72.953125 19.867188 74.28125 18.234375 74.28125 Z M 20.40625 73.71875 C 20.511719 73.621094 20.617188 73.523438 20.707031 73.410156 L 21.90625 74.21875 L 21.421875 75.121094 Z M 21.464844 75.914062 L 21.96875 76.621094 L 20.257812 78.5625 C 20.203125 78.515625 20.144531 78.480469 20.09375 78.433594 Z M 18.234375 84.050781 C 16.597656 84.050781 15.269531 82.726562 15.269531 81.089844 C 15.269531 79.453125 16.597656 78.128906 18.234375 78.128906 C 19.867188 78.128906 21.195312 79.453125 21.195312 81.089844 C 21.195312 82.726562 19.867188 84.050781 18.234375 84.050781 Z M 37.410156 98.527344 L 20.773438 83.101562 C 21.015625 82.792969 21.210938 82.449219 21.328125 82.066406 L 26.761719 83.300781 L 37.558594 98.378906 L 37.734375 98.25 C 37.621094 98.339844 37.507812 98.429688 37.410156 98.527344 Z M 37.882812 98.136719 L 37.898438 98.128906 L 27.375 83.445312 L 30.195312 84.089844 L 37.996094 98.078125 L 38.003906 98.070312 C 37.964844 98.09375 37.921875 98.113281 37.882812 98.136719 Z M 39.585938 97.628906 C 39.074219 97.628906 38.59375 97.753906 38.175781 97.972656 L 38.363281 97.867188 L 30.75 84.210938 L 36.433594 85.5 L 36.523438 85.085938 L 30.472656 83.714844 L 27.179688 77.8125 L 36.921875 84.425781 L 36.953125 84.382812 C 36.652344 84.863281 36.480469 85.417969 36.480469 86.023438 C 36.480469 87.742188 37.867188 89.128906 39.585938 89.128906 C 40.507812 89.128906 41.332031 88.726562 41.902344 88.085938 L 41.765625 88.246094 L 42.960938 89.265625 L 40.515625 97.777344 C 40.222656 97.679688 39.914062 97.628906 39.585938 97.628906 Z M 40.71875 97.84375 Z M 40.824219 97.890625 L 40.914062 97.925781 L 43.988281 90.136719 L 45.164062 91.140625 L 41.191406 98.085938 C 41.070312 98.011719 40.949219 97.941406 40.824219 97.890625 Z M 41.933594 98.707031 C 41.765625 98.511719 41.574219 98.339844 41.363281 98.199219 L 41.550781 98.300781 L 45.488281 91.417969 L 47.933594 93.503906 Z M 48.261719 93.21875 L 45.703125 91.042969 L 48.253906 86.578125 L 50.804688 91.011719 Z M 54.578125 98.699219 L 54.628906 98.640625 L 48.585938 93.496094 L 51.023438 91.378906 L 54.988281 98.273438 L 55.171875 98.167969 C 54.953125 98.316406 54.75 98.496094 54.578125 98.699219 Z M 55.359375 98.054688 L 51.351562 91.101562 L 52.425781 90.171875 L 55.5 97.964844 L 55.695312 97.890625 C 55.574219 97.933594 55.460938 97.988281 55.359375 98.054688 Z M 55.746094 97.859375 L 55.890625 97.800781 L 55.949219 97.785156 C 55.882812 97.808594 55.816406 97.828125 55.746094 97.859375 Z M 56.917969 97.628906 C 56.632812 97.628906 56.355469 97.671875 56.085938 97.738281 L 56.28125 97.679688 L 53.753906 89.003906 L 54.691406 88.183594 L 54.554688 88.027344 C 55.125 88.695312 55.964844 89.113281 56.910156 89.113281 C 58.628906 89.113281 60.015625 87.726562 60.015625 86.011719 C 60.015625 85.800781 59.992188 85.597656 59.953125 85.402344 L 60 85.613281 L 65.859375 84.316406 L 58.199219 97.890625 L 58.378906 97.996094 C 57.953125 97.761719 57.449219 97.628906 56.917969 97.628906 Z M 59.175781 98.609375 C 58.949219 98.378906 58.695312 98.175781 58.410156 98.015625 L 58.574219 98.109375 L 66.421875 84.203125 L 75.660156 82.15625 C 75.773438 82.53125 75.945312 82.882812 76.175781 83.191406 Z M 78.773438 78.285156 C 80.40625 78.285156 81.734375 79.613281 81.734375 81.246094 C 81.734375 82.882812 80.40625 84.210938 78.773438 84.210938 C 77.136719 84.210938 75.808594 82.882812 75.808594 81.246094 C 75.808594 79.613281 77.136719 78.285156 78.773438 78.285156 Z M 77.085938 78.472656 C 77.046875 78.496094 77.003906 78.515625 76.964844 78.539062 L 72.398438 73.566406 L 73.359375 71.863281 Z M 73.363281 71.015625 L 72.421875 69.335938 L 76.914062 64.460938 C 76.949219 64.484375 76.988281 64.515625 77.023438 64.539062 Z M 73.363281 71.015625 "/>
<path style=" stroke:none;fill-rule:nonzero;fill:rgb(0%,0%,0%);fill-opacity:1;" d="M 42.691406 41.753906 L 53.804688 41.753906 L 53.804688 42.316406 L 42.691406 42.316406 Z M 42.691406 41.753906 "/>
<path style=" stroke:none;fill-rule:nonzero;fill:rgb(0%,0%,0%);fill-opacity:1;" d="M 42.691406 100.453125 L 53.804688 100.453125 L 53.804688 101.015625 L 42.691406 101.015625 Z M 42.691406 100.453125 "/>
</g>
</svg>
