<?xml version="1.0" encoding="utf-8"?>
<!-- Generator: Adobe Illustrator 24.0.1, SVG Export Plug-In . SVG Version: 6.00 Build 0)  -->
<svg version="1.1" id="Camada_1" xmlns="http://www.w3.org/2000/svg" xmlns:xlink="http://www.w3.org/1999/xlink" x="0px" y="0px"
	 viewBox="0 0 400 200" style="enable-background:new 0 0 400 200;" xml:space="preserve">
<style type="text/css">
	.st0{fill:#7A7A7A;}
</style>
<g>
	<g>
		<path class="st0" d="M153.34,116.6h-5.14v-0.67h11.04v0.67h-5.14v15.17h-0.77V116.6z"/>
		<path class="st0" d="M162.27,114.44h0.72v5.14v2.59c1.25-1.25,2.45-2.16,4.03-2.16c2.35,0,3.46,1.39,3.46,4.37v7.39h-0.72v-7.3
			c0-2.54-0.82-3.79-2.78-3.79c-1.44,0-2.5,0.77-3.98,2.3v8.79h-0.72V114.44z"/>
		<path class="st0" d="M173.78,126.06c0-3.74,2.4-6.05,4.94-6.05c2.64,0,4.32,1.87,4.32,5.28c0,0.24,0,0.48-0.05,0.77h-8.45
			c0,3.07,1.78,5.33,4.51,5.33c1.3,0,2.3-0.43,3.17-1.06l0.34,0.62c-0.86,0.53-1.82,1.1-3.55,1.1
			C176.14,132.06,173.78,129.81,173.78,126.06z M182.33,125.39c0-3.17-1.44-4.7-3.6-4.7c-2.06,0-3.94,1.78-4.18,4.7H182.33z"/>
		<path class="st0" d="M189.58,120.4l1.58-0.1h3.46v0.67h-5.04V120.4z M191.16,117.47c0-2.26,1.01-3.31,2.64-3.31
			c0.48,0,1.06,0.14,1.58,0.38l-0.24,0.62c-0.48-0.24-0.96-0.34-1.39-0.34c-1.3,0-1.87,1.01-1.87,2.74v14.21h-0.72V117.47z"/>
		<path class="st0" d="M196.92,127.69v-7.39h0.72v7.3c0,2.54,0.82,3.79,2.78,3.79c1.44,0,2.5-0.77,3.94-2.5v-8.59h0.72v11.47h-0.63
			l-0.1-1.97h-0.05c-1.15,1.34-2.35,2.26-3.94,2.26C198.02,132.06,196.92,130.67,196.92,127.69z"/>
		<path class="st0" d="M209.93,128.75v-7.78h-1.82v-0.58l1.82-0.1l0.1-3.36h0.62v3.36h3.41v0.67h-3.41v7.87
			c0,1.49,0.34,2.54,2.02,2.54c0.43,0,1.06-0.19,1.49-0.38l0.24,0.62c-0.67,0.24-1.39,0.43-1.78,0.43
			C210.5,132.06,209.93,130.72,209.93,128.75z"/>
		<path class="st0" d="M216.74,127.69v-7.39h0.72v7.3c0,2.54,0.82,3.79,2.78,3.79c1.44,0,2.5-0.77,3.94-2.5v-8.59h0.72v11.47h-0.62
			l-0.1-1.97h-0.05c-1.15,1.34-2.35,2.26-3.94,2.26C217.85,132.06,216.74,130.67,216.74,127.69z"/>
		<path class="st0" d="M229.51,120.3h0.63l0.1,2.16h0.05c0.77-1.39,1.87-2.45,3.26-2.45c0.38,0,0.72,0.05,1.1,0.24l-0.19,0.67
			c-0.38-0.14-0.58-0.19-1.01-0.19c-1.06,0-2.3,0.82-3.22,3.07v7.97h-0.72V120.3z"/>
		<path class="st0" d="M235.85,126.06c0-3.74,2.4-6.05,4.95-6.05c2.64,0,4.32,1.87,4.32,5.28c0,0.24,0,0.48-0.05,0.77h-8.45
			c0,3.07,1.78,5.33,4.51,5.33c1.29,0,2.3-0.43,3.17-1.06l0.34,0.62c-0.86,0.53-1.82,1.1-3.55,1.1
			C238.2,132.06,235.85,129.81,235.85,126.06z M244.39,125.39c0-3.17-1.44-4.7-3.6-4.7c-2.06,0-3.94,1.78-4.18,4.7H244.39z"/>
		<path class="st0" d="M252.7,116.56c0-0.53,0.38-0.82,0.82-0.82s0.82,0.29,0.82,0.82c0,0.48-0.38,0.82-0.82,0.82
			S252.7,117.04,252.7,116.56z M253.13,120.3h0.72v11.47h-0.72V120.3z"/>
		<path class="st0" d="M256.97,130.48l0.48-0.58c0.96,0.82,2.02,1.49,3.74,1.49c1.92,0,2.93-1.15,2.93-2.45
			c0-1.54-1.54-2.21-2.88-2.69c-1.78-0.62-3.75-1.3-3.75-3.26c0-1.58,1.25-2.98,3.6-2.98c1.15,0,2.35,0.48,3.17,1.15l-0.43,0.58
			c-0.77-0.58-1.58-1.06-2.78-1.06c-1.92,0-2.78,1.13-2.78,2.26c0,1.39,1.39,1.92,2.78,2.45c1.82,0.7,3.84,1.25,3.84,3.5
			c0,1.68-1.34,3.17-3.74,3.17C259.42,132.06,257.98,131.34,256.97,130.48z"/>
		<path class="st0" d="M271.85,126.06c0-3.7,2.35-6.05,5.14-6.05c1.39,0,2.35,0.53,3.55,1.44l-0.05-2.16v-4.85h0.72v17.33h-0.62
			l-0.1-1.54h-0.05c-0.96,0.96-2.26,1.82-3.84,1.82C273.72,132.06,271.85,129.95,271.85,126.06z M280.49,129.37v-7.1
			c-1.3-1.15-2.35-1.58-3.55-1.58c-2.45,0-4.32,2.4-4.32,5.38c0,3.17,1.44,5.33,4.03,5.33
			C277.99,131.39,279.19,130.67,280.49,129.37z"/>
		<path class="st0" d="M284.95,128.96c0-2.57,2.35-3.77,7.54-4.34c0.05-1.87-0.43-3.94-2.83-3.94c-1.63,0-3.02,0.82-3.74,1.39
			l-0.38-0.58c0.72-0.53,2.3-1.49,4.18-1.49c2.69,0,3.5,2.02,3.5,4.32v7.44h-0.62l-0.1-1.54h-0.05c-1.2,0.96-2.64,1.82-4.18,1.82
			C286.49,132.06,284.95,131.15,284.95,128.96z M292.49,129.42v-4.18c-5.04,0.58-6.77,1.73-6.77,3.7c0,1.78,1.2,2.45,2.59,2.45
			C289.7,131.39,290.95,130.72,292.49,129.42z"/>
		<path class="st0" d="M297.72,128.75v-7.78h-1.82v-0.58l1.82-0.1l0.1-3.36h0.62v3.36h3.41v0.67h-3.41v7.87
			c0,1.49,0.34,2.54,2.02,2.54c0.43,0,1.06-0.19,1.49-0.38l0.24,0.62c-0.67,0.24-1.39,0.43-1.78,0.43
			C298.29,132.06,297.72,130.72,297.72,128.75z"/>
		<path class="st0" d="M303.86,128.96c0-2.57,2.35-3.77,7.54-4.34c0.05-1.87-0.43-3.94-2.83-3.94c-1.63,0-3.02,0.82-3.74,1.39
			l-0.38-0.58c0.72-0.53,2.3-1.49,4.18-1.49c2.69,0,3.5,2.02,3.5,4.32v7.44h-0.62l-0.1-1.54h-0.05c-1.2,0.96-2.64,1.82-4.18,1.82
			C305.4,132.06,303.86,131.15,303.86,128.96z M311.4,129.42v-4.18c-5.04,0.58-6.77,1.73-6.77,3.7c0,1.78,1.2,2.45,2.59,2.45
			C308.61,131.39,309.86,130.72,311.4,129.42z"/>
		<path class="st0" d="M319.7,130.48l0.48-0.58c0.96,0.82,2.02,1.49,3.74,1.49c1.92,0,2.93-1.15,2.93-2.45
			c0-1.54-1.54-2.21-2.88-2.69c-1.78-0.62-3.75-1.3-3.75-3.26c0-1.58,1.25-2.98,3.6-2.98c1.15,0,2.35,0.48,3.17,1.15l-0.43,0.58
			c-0.77-0.58-1.58-1.06-2.78-1.06c-1.92,0-2.78,1.13-2.78,2.26c0,1.39,1.39,1.92,2.78,2.45c1.82,0.7,3.84,1.25,3.84,3.5
			c0,1.68-1.34,3.17-3.74,3.17C322.15,132.06,320.71,131.34,319.7,130.48z"/>
		<path class="st0" d="M329.78,126.06c0-3.84,2.4-6.05,5.14-6.05c1.58,0,2.59,0.72,3.36,1.44l-0.48,0.53
			c-0.77-0.72-1.68-1.3-2.88-1.3c-2.45,0-4.37,2.21-4.37,5.38c0,3.17,1.73,5.33,4.37,5.33c1.3,0,2.4-0.62,3.22-1.39l0.43,0.53
			c-0.96,0.86-2.16,1.54-3.65,1.54C331.99,132.06,329.78,129.85,329.78,126.06z"/>
		<path class="st0" d="M341.06,116.56c0-0.53,0.38-0.82,0.82-0.82c0.43,0,0.82,0.29,0.82,0.82c0,0.48-0.38,0.82-0.82,0.82
			C341.45,117.37,341.06,117.04,341.06,116.56z M341.49,120.3h0.72v11.47h-0.72V120.3z"/>
		<path class="st0" d="M345.81,126.06c0-3.74,2.4-6.05,4.94-6.05c2.64,0,4.32,1.87,4.32,5.28c0,0.24,0,0.48-0.05,0.77h-8.45
			c0,3.07,1.78,5.33,4.51,5.33c1.3,0,2.3-0.43,3.17-1.06l0.34,0.62c-0.86,0.53-1.82,1.1-3.55,1.1
			C348.17,132.06,345.81,129.81,345.81,126.06z M354.36,125.39c0-3.17-1.44-4.7-3.6-4.7c-2.06,0-3.94,1.78-4.18,4.7H354.36z"/>
		<path class="st0" d="M358.29,120.3h0.63l0.1,1.82h0.05c1.2-1.2,2.4-2.11,3.98-2.11c2.35,0,3.46,1.39,3.46,4.37v7.39h-0.72v-7.3
			c0-2.54-0.82-3.79-2.78-3.79c-1.44,0-2.5,0.77-3.98,2.3v8.79h-0.72V120.3z"/>
		<path class="st0" d="M369.91,126.06c0-3.84,2.4-6.05,5.14-6.05c1.58,0,2.59,0.72,3.36,1.44l-0.48,0.53
			c-0.77-0.72-1.68-1.3-2.88-1.3c-2.45,0-4.37,2.21-4.37,5.38c0,3.17,1.73,5.33,4.37,5.33c1.3,0,2.4-0.62,3.22-1.39l0.43,0.53
			c-0.96,0.86-2.16,1.54-3.65,1.54C372.12,132.06,369.91,129.85,369.91,126.06z"/>
		<path class="st0" d="M380.61,126.06c0-3.74,2.4-6.05,4.94-6.05c2.64,0,4.32,1.87,4.32,5.28c0,0.24,0,0.48-0.05,0.77h-8.45
			c0,3.07,1.78,5.33,4.51,5.33c1.3,0,2.3-0.43,3.17-1.06l0.34,0.62c-0.86,0.53-1.82,1.1-3.55,1.1
			C382.97,132.06,380.61,129.81,380.61,126.06z M389.16,125.39c0-3.17-1.44-4.7-3.6-4.7c-2.06,0-3.94,1.78-4.18,4.7H389.16z"/>
	</g>
</g>
<g>
	<g>
		<path d="M149.43,61.32h16.37v1.3h-14.88v12.93h12.55v1.3h-12.55v15.16h-1.49V61.32z"/>
		<path d="M169.15,80.94c0-7.25,4.65-11.72,9.58-11.72c5.11,0,8.37,3.63,8.37,10.23c0,0.46,0,0.93-0.09,1.49h-16.37
			c0,5.95,3.44,10.32,8.74,10.32c2.51,0,4.46-0.84,6.14-2.05l0.65,1.21c-1.67,1.02-3.53,2.14-6.88,2.14
			C173.7,92.57,169.15,88.2,169.15,80.94z M185.7,79.64c0-6.14-2.79-9.11-6.97-9.11c-4,0-7.63,3.44-8.09,9.11H185.7z"/>
		<path d="M193.33,89.59V58.44h1.4v31.43c0,0.93,0.37,1.39,0.93,1.39c0.19,0,0.37,0,0.84-0.09l0.28,1.21
			c-0.37,0.09-0.65,0.19-1.21,0.19C194.16,92.57,193.33,91.73,193.33,89.59z"/>
		<path d="M203.18,62.53c0-1.02,0.74-1.58,1.58-1.58s1.58,0.56,1.58,1.58c0,0.93-0.74,1.58-1.58,1.58S203.18,63.46,203.18,62.53z
			 M204.02,69.78h1.39v22.22h-1.39V69.78z"/>
		<path d="M214.34,69.78h1.21l0.19,2.88h0.09c2.23-1.77,4.93-3.44,7.72-3.44c6.04,0,8.93,4.46,8.93,11.34c0,7.53-4.56,12-9.86,12
			c-2.14,0-4.46-1.02-6.88-2.79v4.18v8.37h-1.39V69.78z M230.99,80.57c0-5.67-2.05-10.04-7.53-10.04c-2.33,0-4.83,1.4-7.72,3.91
			V88.2c2.7,2.23,5.21,3.07,6.97,3.07C227.55,91.26,230.99,86.8,230.99,80.57z"/>
		<path d="M237.5,80.94c0-7.25,4.65-11.72,9.58-11.72c5.11,0,8.37,3.63,8.37,10.23c0,0.46,0,0.93-0.09,1.49h-16.37
			c0,5.95,3.44,10.32,8.74,10.32c2.51,0,4.46-0.84,6.14-2.05l0.65,1.21c-1.67,1.02-3.53,2.14-6.88,2.14
			C242.06,92.57,237.5,88.2,237.5,80.94z M254.05,79.64c0-6.14-2.79-9.11-6.97-9.11c-4,0-7.63,3.44-8.09,9.11H254.05z"/>
		<path d="M271.17,61.32h1.49v29.38h14.41v1.3h-15.9V61.32z"/>
		<path d="M291.53,62.53c0-1.02,0.74-1.58,1.58-1.58s1.58,0.56,1.58,1.58c0,0.93-0.74,1.58-1.58,1.58S291.53,63.46,291.53,62.53z
			 M292.37,69.78h1.4v22.22h-1.4V69.78z"/>
		<path d="M302.69,69.78h1.21l0.19,3.53h0.09c2.05-2.32,4.65-4.09,7.07-4.09c3.63,0,5.39,1.86,6.14,4.65
			c2.6-2.88,5.11-4.65,7.63-4.65c4.37,0,6.6,2.7,6.6,8.46v14.32h-1.4V77.87c0-4.93-1.67-7.35-5.3-7.35c-2.23,0-4.46,1.49-7.07,4.46
			v17.02h-1.39V77.87c0-4.93-1.67-7.35-5.3-7.35c-2.14,0-4.46,1.49-7.07,4.46v17.02h-1.4V69.78z"/>
		<path d="M338.5,86.57c0-4.97,4.56-7.3,14.6-8.42c0.09-3.63-0.84-7.63-5.49-7.63c-3.16,0-5.86,1.58-7.25,2.7l-0.74-1.12
			c1.39-1.02,4.46-2.88,8.09-2.88c5.21,0,6.79,3.91,6.79,8.37v14.41h-1.21l-0.19-2.98H353c-2.33,1.86-5.11,3.53-8.09,3.53
			C341.47,92.57,338.5,90.8,338.5,86.57z M353.1,87.45v-8.09c-9.76,1.12-13.11,3.35-13.11,7.16c0,3.44,2.33,4.74,5.02,4.74
			S350.12,89.96,353.1,87.45z"/>
	</g>
</g>
<g>
	<rect x="128.44" y="51.97" width="0.75" height="86.47"/>
	<path d="M105.03,86.74c2.39,0,4.33-1.94,4.33-4.33s-1.94-4.33-4.33-4.33c-1.15,0-2.18,0.45-2.96,1.18L79.02,58.74
		c0.62-0.72,1-1.67,1-2.7c0-2.29-1.85-4.14-4.14-4.14c-2.29,0-4.14,1.85-4.14,4.14c0,0.67,0.16,1.3,0.44,1.86l-0.12-0.24
		l-10.65,5.46l-5.32-4.58L56,58.65c0.58-0.71,0.93-1.62,0.93-2.61c0-2.29-1.85-4.14-4.14-4.14c-2.29,0-4.14,1.85-4.14,4.14
		c0,1.02,0.37,1.94,0.97,2.66l-0.19-0.2L27.37,79c-0.78-0.79-1.87-1.28-3.07-1.28c-2.39,0-4.33,1.94-4.33,4.33s1.94,4.33,4.33,4.33
		c0.52,0,1.01-0.1,1.47-0.26l2.07,3.72l-1.18,1.63c-0.68-0.44-1.49-0.7-2.36-0.7c-2.39,0-4.33,1.94-4.33,4.33s1.94,4.33,4.33,4.33
		c0.91,0,1.76-0.29,2.46-0.77l1.48,2.07l-1.94,3.57c-0.6-0.31-1.28-0.49-2-0.49c-2.39,0-4.33,1.94-4.33,4.33s1.94,4.33,4.33,4.33
		c1.17,0,2.23-0.47,3.01-1.23l22.18,20.56l0.19-0.21c-0.65,0.73-1.05,1.69-1.05,2.74c0,2.29,1.85,4.14,4.14,4.14
		c2.29,0,4.14-1.85,4.14-4.14c0-0.93-0.31-1.79-0.83-2.48l0.18,0.21l8.08-7.01l8.12,6.91l0.18-0.21c-0.57,0.71-0.91,1.61-0.91,2.59
		c0,2.29,1.85,4.14,4.14,4.14c2.29,0,4.14-1.85,4.14-4.14c0-1-0.35-1.91-0.94-2.63l0.19,0.21l22.65-20.55
		c0.79,0.81,1.89,1.32,3.1,1.32c2.39,0,4.33-1.94,4.33-4.33s-1.94-4.33-4.33-4.33c-0.62,0-1.21,0.13-1.75,0.37l-5.14-9.11l5.04-8.94
		C103.74,86.59,104.37,86.74,105.03,86.74z M105.03,78.46c2.18,0,3.95,1.77,3.95,3.95s-1.77,3.95-3.95,3.95s-3.95-1.77-3.95-3.95
		S102.85,78.46,105.03,78.46z M100.76,108.98l-11.83,2.62l4.63-8.21l7.46,3.31c-0.2,0.5-0.32,1.05-0.32,1.62
		C100.7,108.55,100.72,108.77,100.76,108.98z M79.93,113.82c-0.17-0.81-0.58-1.52-1.15-2.08l9.75-10.58l4.51,2l-4.85,8.6l-8.3,1.84
		L79.93,113.82z M78.77,111.73c-0.75-0.73-1.76-1.17-2.88-1.17c-0.72,0-1.39,0.18-1.98,0.5l-3.58-6.09l3.58-6.25
		c0.59,0.32,1.26,0.5,1.98,0.5c1.64,0,3.04-0.95,3.72-2.33l-0.11,0.25l8.5,3.77l-9.62,10.44L78.77,111.73z M36.62,103.1l4.09-1.87
		l9.06,10.61l0.21-0.18c-0.2,0.18-0.38,0.39-0.55,0.61l0.21-0.31L36.62,103.1z M27.42,105.12l2.2-2.5l1.65,2.3l-2.94,1.35l0.23,0.51
		l3.04-1.39l3.57,4.99l-6.62-1.5c0.04-0.25,0.07-0.5,0.07-0.76C28.63,106.96,28.17,105.9,27.42,105.12z M28.61,81.57l6.32-1.48
		l-3.63,5.01L28.3,83.7c0.21-0.51,0.33-1.07,0.33-1.65C28.63,81.89,28.62,81.73,28.61,81.57z M73.95,79.45
		c0.1,0.05,0.2,0.1,0.31,0.15l-0.18-0.07l-2.85,7.22l-0.76-1.29l3.52-5.99L73.95,79.45z M74.34,79.63c0.48,0.19,1,0.3,1.55,0.3
		c1.02,0,1.96-0.37,2.68-0.99l-0.21,0.2l9.56,10.4l-8.33,3.67l0.23,0.51l8.5-3.75l4.87,5.3l-4.79,5.2l-8.67-3.85
		c0.2-0.48,0.3-1,0.3-1.56c0-2.29-1.85-4.14-4.14-4.14c-0.7,0-1.36,0.17-1.93,0.48l0.01,0l-2.37-4.05l3.01-7.63L74.34,79.63z
		 M100.93,83.8l-7.41,3.27l-4.59-8.14l11.88,2.54c-0.07,0.31-0.11,0.62-0.11,0.95C100.7,82.9,100.79,83.37,100.93,83.8z
		 M95.87,92.37l-2.3,2.5l-4.71-5.12l4.42-1.95L95.87,92.37z M95.85,98.18l-2.53,4.49l-4.39-1.95l4.63-5.03L95.85,98.18z
		 M54.74,91.43c-0.58-0.31-1.25-0.49-1.95-0.49c-2.29,0-4.14,1.85-4.14,4.14v-0.37H36.6l4.08-4.63l7.85,3.65l0.24-0.51l-7.7-3.58
		l9.25-10.51l-0.16-0.14c0.71,0.59,1.63,0.94,2.62,0.94c0.5,0,0.98-0.09,1.42-0.26l-0.26,0.1l3.04,7.7l-2.32,3.91L54.74,91.43z
		 M33.22,91.58l-1-1.18l2.61-1.79L33.22,91.58z M33.32,92.57l1.83,2.14h-2.99L33.32,92.57z M31.85,89.98L30,87.82l1.47-2.02
		l3.86,1.8L31.85,89.98z M32.93,92.11l-1.41,2.6h-0.31l-1.46-2.62l2-1.36L32.93,92.11z M31.37,96.16l1.24,2.23l-1.1,1.24l-1.49-1.01
		L31.37,96.16z M35.21,103.04l0.04,0.07l-3.45,1.58l-1.79-2.5l1.48-1.68L35.21,103.04z M31.98,99.95l0.92-1.04l1.49,2.68
		L31.98,99.95z M31.69,95.57l0.06-0.11h3.44l-2.18,2.48L31.69,95.57z M33.61,92.04l2.24-4.11l0.08-0.05l4.22,1.96l-4.27,4.85
		L33.61,92.04z M49.48,78.28c0.19,0.25,0.4,0.47,0.63,0.67l-0.21-0.19l-9.36,10.63l-4.06-1.89l13.17-8.99L49.48,78.28z M36.44,86.84
		l4.43-8.15l7.91-1.86c0.11,0.43,0.29,0.84,0.53,1.21L36.44,86.84z M49.02,96.8l-8.15,3.73l-4.34-5.08h12.11v-0.37
		C48.64,95.7,48.78,96.28,49.02,96.8z M58.2,85.42l-0.86,1.44l-2.88-7.29l-0.01,0c0.09-0.04,0.18-0.08,0.26-0.13l-0.02,0.01
		L58.2,85.42z M56.94,76.17l1.74-0.06l1.56,5.35l-3.96-3.4l-0.18,0.21c0.52-0.69,0.83-1.55,0.83-2.48c0-0.97-0.34-1.86-0.9-2.57
		l0.02,0.02l1.44-1.22l0.98,3.35l-1.54,0.05L56.94,76.17z M72.58,78.28l-0.18-0.21l-3.64,3.12l1.57-5.46l1.43-0.05
		c0,0.04-0.01,0.08-0.01,0.12C71.75,76.73,72.06,77.58,72.58,78.28z M68.1,81.41l-3.23-5.51l4.86-0.16L68.1,81.41z M72.67,97.68
		l-0.19-0.22l-4.34,3.77l-1.21-2.06l1.47-3.72h3.35v-0.75h-3.05l1.54-3.91l2.23,1.92l0.18-0.22c-0.57,0.71-0.91,1.6-0.91,2.58
		C71.75,96.07,72.09,96.97,72.67,97.68z M62.66,100.34l-0.37-0.94l1.25-2.13L62.66,100.34z M62.74,102.08l0.8,2.02l-1.11-0.94
		L62.74,102.08z M56,92.48l0.18,0.21l2.14-1.83l1.52,3.85h-2.91v0.75h3.21l1.54,3.89l-1.24,2.11l-4.44-3.76
		c0.59-0.71,0.94-1.63,0.94-2.63C56.92,94.1,56.58,93.19,56,92.48z M60.8,88.74l1.24-1.07l1.84,6.32L60.8,88.74z M63.65,94.71h-3.22
		l-1.67-4.23l1.6-1.37L63.65,94.71z M61.3,83.12l2.59,2.22l-1.55,1.33L61.3,83.12z M61.87,87.08l-1.36,1.16l-1.66-2.82l1.7-2.87
		L61.87,87.08z M60.08,88.61l-1.53,1.31l-0.94-2.39l0.92-1.55L60.08,88.61z M61.93,100.02l0.48,1.21l-0.44,1.54l-1.1-0.93
		L61.93,100.02z M62.03,98.74l-1.29-3.28h3.22L62.03,98.74z M62.51,87.27l1.81-1.55l2.04,1.75l-1.88,6.54L62.51,87.27z M65.31,93.14
		l1.52-5.27l1.05,0.9L65.31,93.14z M68.31,89.15l1.47,1.27l-1.7,4.3h-3.05L68.31,89.15z M66.53,86.87l-1.78-1.53l2.94-2.52
		L66.53,86.87z M67.79,95.46l-1.22,3.1l-1.52-2.59l-0.15-0.52H67.79z M66.31,99.23l-0.18,0.45l-0.44-1.5L66.31,99.23z M66.43,102.73
		l-1.37,1.19l0.99-2.51L66.43,102.73z M66.39,100.56l0.28-0.72l1.04,1.77l-0.81,0.71L66.39,100.56z M70,89.86l-1.4-1.21l1.55-2.63
		l0.82,1.4L70,89.86z M68.17,88.28l-1.17-1l1.28-4.45l1.54,2.63L68.17,88.28z M67.79,82l-3.47,2.97l-3.31-2.84l-0.07-0.24l3.41-5.76
		L67.79,82z M60.73,81.16l-1.48-5.06l4.57-0.15L60.73,81.16z M60.15,82.13l-1.62,2.73l-3.34-5.69l-0.23,0.14
		c0.36-0.22,0.68-0.5,0.96-0.82L60.15,82.13z M55.15,91.68l2.1-3.54l0.86,2.17l-2.28,1.96l0.11,0.13c-0.29-0.34-0.64-0.63-1.02-0.86
		L55.15,91.68z M55.79,97.92l-0.18,0.21l4.52,3.82l-1.47,2.5l-3.46-6l-0.26,0.15C55.26,98.42,55.54,98.18,55.79,97.92z
		 M60.57,102.33l1.22,1.03l-1.25,4.35l-1.55-2.69L60.57,102.33z M60.71,109.13l1,1.74l-1.36,3.45h-1.13L60.71,109.13z M62.07,111.49
		l1.63,2.83h-2.75L62.07,111.49z M61.98,110.2l-1.05-1.82l0.05-0.16l2.71-2.36L61.98,110.2z M61.26,107.22l1-3.47l1.52,1.28
		L61.26,107.22z M63,101.19l1.47-5.1l0.06,0.11l1.26,4.33l-1.53,3.87L63,101.19z M66.61,103.32l1.3,4.47l-3.27-2.76L66.61,103.32z
		 M67.73,108.38l-1.12,1.97l-1.73-4.38L67.73,108.38z M67.57,114.32h-2.59l1.53-2.68L67.57,114.32z M66.87,111.02l1.3-2.27
		l0.02,0.02l1.62,5.55h-1.64L66.87,111.02z M67.07,102.92l0.93-0.81l1.68,2.86l-1.33,2.33L67.07,102.92z M68.43,101.74l4.42-3.84
		l-0.07-0.08c0.26,0.29,0.56,0.55,0.89,0.76l-0.25-0.14L70,104.41L68.43,101.74z M72.79,92.34l0.04-0.05l-2.38-2.04l0.87-2.21
		l2.15,3.67l0.25-0.15C73.38,91.77,73.06,92.03,72.79,92.34z M73.5,79.19l-3.36,5.72l-1.63-2.78l4.24-3.63
		c0.28,0.33,0.61,0.61,0.98,0.83L73.5,79.19z M71.78,75.3l-0.01-0.38l-1.23,0.04l0.75-2.6l1.2,1.03l0.19-0.22
		C72.19,73.77,71.87,74.5,71.78,75.3z M69.95,74.98l-5.01,0.17l3.24-5.46l2.64,2.27L69.95,74.98z M64.36,75.03l-3.47-5.92l3.33-2.84
		l3.53,3.04L64.36,75.03z M63.8,75.19l-4.76,0.16l-1.09-3.73l2.51-2.14L63.8,75.19z M57.78,71.03l-1.37-4.71l1.69-0.87l2.07,3.54
		L57.78,71.03z M57.31,71.43l-1.63,1.39l0.18,0.22c-0.76-0.85-1.86-1.38-3.08-1.38c-2.29,0-4.14,1.85-4.14,4.14
		c0,0.26,0.03,0.52,0.07,0.77l-0.06-0.27l-7.43,1.74l2.96-5.45l11.7-6L57.31,71.43z M40.49,78.2l-4.23,0.99l2.95-4.06l4.09-2.09
		L40.49,78.2z M40.13,78.87l-4.49,8.25l-3.83-1.78l3.95-5.44L40.13,78.87z M30.95,85.56l-1.33,1.83l-2.1-2.46
		c0.2-0.22,0.37-0.46,0.52-0.72L30.95,85.56z M29.66,88.29l1.71,2.01l-1.91,1.3l-0.96-1.72L29.66,88.29z M30.56,94.71h-1.95
		c-0.05-0.55-0.2-1.07-0.44-1.55l1.1-0.75L30.56,94.71z M30.98,95.46l0.06,0.12l-1.48,2.73l-1.52-1.04
		c0.32-0.54,0.52-1.15,0.58-1.81H30.98z M29.67,99.28l1.35,0.91l-1.35,1.53l-0.75-1.05L29.67,99.28z M32.13,105.15l3.39-1.55
		l4.38,7.85l-3.89-0.88L32.13,105.15z M35.43,102.29l-2.14-3.83l2.57-2.91l4.47,5.24l-4.26,1.95L35.43,102.29z M41.25,100.98
		l8.01-3.67l-0.12-0.26c0.7,1.29,2.07,2.17,3.64,2.17c0.7,0,1.36-0.18,1.94-0.48l3.62,6.28l-3.56,6.06c-0.59-0.33-1.27-0.52-2-0.52
		c-0.98,0-1.87,0.34-2.58,0.9L41.25,100.98z M55.27,111.36l3.4-5.79l1.5,2.6l-4.31,3.75c-0.25-0.28-0.54-0.52-0.86-0.72
		L55.27,111.36z M56.03,112.14l0.18,0.21l3.98-3.46l-1.56,5.43h-1.71v0.75h1.5l-0.96,3.35l-1.4-1.19l-0.03,0.04
		c0.56-0.71,0.9-1.6,0.9-2.57C56.92,113.73,56.59,112.85,56.03,112.14z M57.76,119.42l0.44,0.37l-2.01,5.11L57.76,119.42z
		 M57.93,118.82l1.08-3.75h1.05l-1.64,4.16L57.93,118.82z M60.66,115.07h3.24l-3.4,5.94l-1.64-1.39L60.66,115.07z M62.34,110.82
		l1.93-4.89l1.99,5.03l-1.91,3.34L62.34,110.82z M67.87,115.07l1.81,4.59l-1.5,1.3l-3.39-5.89H67.87z M68.47,115.07h1.56l1,3.42
		l-0.9,0.78L68.47,115.07z M71.2,119.09l3.24,11.11l-4.09-10.37L71.2,119.09z M70.62,115.07h1.13v-0.75H70.4l-1.43-4.9l3.48,2.94
		l0.18-0.22c-0.55,0.7-0.88,1.59-0.88,2.55c0,0.99,0.35,1.9,0.93,2.61l-0.12-0.14l-1.06,0.92L70.62,115.07z M68.69,108.45l-0.12-0.4
		l1.44-2.52l3.41,5.82l0.29-0.17c-0.34,0.21-0.64,0.46-0.91,0.76L68.69,108.45z M93.84,102.9l2.42-4.28l5.93,6.46
		c-0.37,0.32-0.68,0.7-0.92,1.12L93.84,102.9z M96.14,97.67l-2.19-2.39l2.21-2.4l1.34,2.38L96.14,97.67z M93.8,87.56l7.35-3.24
		c0.24,0.48,0.56,0.91,0.96,1.27l-5.84,6.34L93.8,87.56z M78.85,58.93l-0.2,0.23l23.04,20.52c-0.3,0.37-0.54,0.79-0.71,1.25
		l-12.41-2.65L78.02,59.58C78.32,59.4,78.6,59.18,78.85,58.93z M75.89,60.18c0.68,0,1.32-0.17,1.89-0.46l-0.24,0.14l10.3,18.26
		l-7.74-1.65l-0.12,0.55l8.23,1.76l4.81,8.53l-4.55,2.01l-9.69-10.54c0.77-0.75,1.25-1.8,1.25-2.97c0-2.29-1.85-4.14-4.14-4.14
		c-1.26,0-2.39,0.57-3.15,1.46l0.12-0.14l-1.4-1.2l3.37-11.73C75.17,60.13,75.52,60.18,75.89,60.18z M74.56,59.96l-0.27-0.08
		l-3.3,11.48l-2.52-2.17l5.59-9.43l-0.13-0.08C74.13,59.8,74.34,59.89,74.56,59.96z M73.83,59.63l-0.25-0.15l-5.54,9.34l-3.39-2.92
		l8.23-7.02l-0.18-0.21C73.01,59.06,73.39,59.38,73.83,59.63z M72.32,58.16l-0.05-0.11c0.12,0.22,0.26,0.43,0.42,0.62l-0.18-0.21
		l-8.29,7.07l-2.34-2.02L72.32,58.16z M63.78,65.9l-3.18,2.72L58.6,65.2l2.74-1.4L63.78,65.9z M55.93,58.73l-0.2,0.23l5.15,4.43
		l-2.56,1.31l-3.1-5.3l-0.25,0.14C55.32,59.33,55.65,59.05,55.93,58.73z M54.72,59.7l3.09,5.27l-1.57,0.8l-1.73-5.94l-0.27,0.08
		C54.41,59.85,54.57,59.78,54.72,59.7z M52.78,60.18c0.41,0,0.82-0.06,1.19-0.18l1.76,6.03l-11.06,5.67l6.45-11.86l-0.25-0.13
		C51.45,60.01,52.09,60.18,52.78,60.18z M50.75,59.64l-0.12-0.07l-6.84,12.58l-3.83,1.96l10.6-14.6l-0.05-0.04
		C50.58,59.54,50.66,59.6,50.75,59.64z M49.81,58.92c0.16,0.16,0.33,0.31,0.52,0.45l-0.23-0.17L38.84,74.69l-10.52,5.4l0.26,0.5
		l9.54-4.89l-2.68,3.69l-6.93,1.62c-0.14-0.59-0.41-1.12-0.76-1.59L49.81,58.92z M24.31,86c-2.18,0-3.95-1.77-3.95-3.95
		s1.77-3.95,3.95-3.95s3.95,1.77,3.95,3.95S26.49,86,24.31,86z M26.29,85.89c0.3-0.16,0.58-0.35,0.84-0.57l2.16,2.53l-1.08,1.48
		L26.29,85.89z M28.15,90.38l0.86,1.54l-1.11,0.76c-0.22-0.33-0.48-0.62-0.78-0.87L28.15,90.38z M24.31,99.04
		c-2.18,0-3.95-1.77-3.95-3.95s1.77-3.95,3.95-3.95s3.95,1.77,3.95,3.95S26.49,99.04,24.31,99.04z M27.21,98.29
		c0.14-0.13,0.28-0.26,0.4-0.41l1.6,1.08l-0.65,1.2L27.21,98.29z M28.62,101.22l0.67,0.94l-2.28,2.59
		c-0.07-0.06-0.15-0.11-0.22-0.17L28.62,101.22z M24.31,112.07c-2.18,0-3.95-1.77-3.95-3.95c0-2.18,1.77-3.95,3.95-3.95
		s3.95,1.77,3.95,3.95C28.26,110.3,26.49,112.07,24.31,112.07z M49.88,131.37L49.88,131.37L27.7,110.8
		c0.32-0.41,0.58-0.87,0.74-1.38l7.24,1.65l14.4,20.1l0.23-0.17C50.16,131.12,50.01,131.24,49.88,131.37z M50.51,130.85l0.02-0.01
		L36.5,111.26l3.76,0.86l10.4,18.65l0.01-0.01C50.62,130.79,50.56,130.82,50.51,130.85z M52.78,130.17c-0.68,0-1.32,0.17-1.88,0.46
		l0.25-0.14L41,112.28l7.58,1.72l0.12-0.55l-8.07-1.83l-4.39-7.87l12.99,8.82l0.04-0.06c-0.4,0.64-0.63,1.38-0.63,2.19
		c0,2.29,1.85,4.14,4.14,4.14c1.23,0,2.33-0.54,3.09-1.39l-0.18,0.21l1.59,1.36l-3.26,11.35C53.63,130.24,53.22,130.17,52.78,130.17
		z M54.29,130.46L54.29,130.46L54.29,130.46C54.29,130.46,54.29,130.46,54.29,130.46z M54.43,130.52l0.12,0.05l4.1-10.39l1.57,1.34
		l-5.3,9.26C54.76,130.68,54.6,130.59,54.43,130.52z M55.91,131.61c-0.22-0.26-0.48-0.49-0.76-0.68l0.25,0.14l5.25-9.18l3.26,2.78
		L55.91,131.61z M64.35,124.29l-3.41-2.9l3.4-5.95l3.4,5.91L64.35,124.29z M72.77,131.6l0.07-0.08l-8.06-6.86l3.25-2.82l5.29,9.19
		l0.24-0.14C73.27,131.09,73,131.33,72.77,131.6z M73.81,130.74l-5.34-9.27l1.43-1.24l4.1,10.39l0.26-0.1
		C74.1,130.58,73.95,130.65,73.81,130.74z M74.33,130.48l0.19-0.08l0,0l0.08-0.02C74.51,130.41,74.42,130.44,74.33,130.48z
		 M75.89,130.17c-0.38,0-0.75,0.06-1.11,0.15l0.26-0.08l-3.37-11.57l1.25-1.09l-0.18-0.21c0.76,0.89,1.88,1.45,3.14,1.45
		c2.29,0,4.14-1.85,4.14-4.14c0-0.28-0.03-0.55-0.08-0.81l0.06,0.28l7.81-1.73l-10.21,18.1l0.24,0.14
		C77.27,130.35,76.6,130.17,75.89,130.17z M78.9,131.48c-0.3-0.31-0.64-0.58-1.02-0.79l0.22,0.12l10.46-18.54l12.32-2.73
		c0.15,0.5,0.38,0.97,0.69,1.38L78.9,131.48z M105.03,104.38c2.18,0,3.95,1.77,3.95,3.95c0,2.18-1.77,3.95-3.95,3.95
		s-3.95-1.77-3.95-3.95C101.08,106.15,102.85,104.38,105.03,104.38z M102.78,104.63c-0.05,0.03-0.11,0.06-0.16,0.09l-6.09-6.63
		l1.28-2.27L102.78,104.63z M97.82,94.69l-1.26-2.24l5.99-6.5c0.05,0.03,0.1,0.07,0.15,0.1L97.82,94.69z"/>
	<rect x="56.92" y="55.67" width="14.82" height="0.75"/>
	<rect x="56.92" y="133.94" width="14.82" height="0.75"/>
</g>
</svg>
